<svg width="19" height="18" viewBox="0 0 19 18" fill="none" xmlns="http://www.w3.org/2000/svg">
<path d="M8.42049 0.489859C8.63273 -0.163359 9.55686 -0.16336 9.76911 0.489858L11.4301 5.60175C11.525 5.89388 11.7972 6.09166 12.1044 6.09166H17.4793C18.1662 6.09166 18.4517 6.97056 17.8961 7.37427L13.5476 10.5336C13.2991 10.7141 13.1952 11.0342 13.2901 11.3263L14.951 16.4382C15.1633 17.0914 14.4156 17.6346 13.86 17.2309L9.51154 14.0716C9.26304 13.891 8.92655 13.891 8.67805 14.0716L4.32962 17.2309C3.77396 17.6346 3.02632 17.0914 3.23856 16.4382L4.89952 11.3263C4.99444 11.0342 4.89045 10.7141 4.64196 10.5336L0.293521 7.37428C-0.26214 6.97056 0.0234311 6.09166 0.710265 6.09166H6.08523C6.39239 6.09166 6.66462 5.89388 6.75953 5.60175L8.42049 0.489859Z" fill="black"/>
</svg>
